<svg width="223" height="45" viewBox="0 0 223 45" fill="none" xmlns="http://www.w3.org/2000/svg">
<path d="M56.9609 22.5664C56.9609 20.5977 57.4219 19.0273 58.3438 17.8555C59.2734 16.6758 60.5039 16.0859 62.0352 16.0859C63.4805 16.0859 64.6172 16.5898 65.4453 17.5977L65.5742 16.3203H68.1406V28.6133C68.1406 30.2773 67.6211 31.5898 66.582 32.5508C65.5508 33.5117 64.1562 33.9922 62.3984 33.9922C61.4688 33.9922 60.5586 33.7969 59.668 33.4062C58.7852 33.0234 58.1133 32.5195 57.6523 31.8945L59 30.1836C59.875 31.2227 60.9531 31.7422 62.2344 31.7422C63.1797 31.7422 63.9258 31.4844 64.4727 30.9688C65.0195 30.4609 65.293 29.7109 65.293 28.7188V27.8633C64.4727 28.7773 63.3789 29.2344 62.0117 29.2344C60.5273 29.2344 59.3125 28.6445 58.3672 27.4648C57.4297 26.2852 56.9609 24.6523 56.9609 22.5664ZM59.7969 22.8125C59.7969 24.0859 60.0547 25.0898 60.5703 25.8242C61.0938 26.5508 61.8164 26.9141 62.7383 26.9141C63.8867 26.9141 64.7383 26.4219 65.293 25.4375V19.8594C64.7539 18.8984 63.9102 18.418 62.7617 18.418C61.8242 18.418 61.0938 18.7891 60.5703 19.5312C60.0547 20.2734 59.7969 21.3672 59.7969 22.8125ZM74.1055 29H71.2578V16.3203H74.1055V29ZM71.082 13.0273C71.082 12.5898 71.2188 12.2266 71.4922 11.9375C71.7734 11.6484 72.1719 11.5039 72.6875 11.5039C73.2031 11.5039 73.6016 11.6484 73.8828 11.9375C74.1641 12.2266 74.3047 12.5898 74.3047 13.0273C74.3047 13.457 74.1641 13.8164 73.8828 14.1055C73.6016 14.3867 73.2031 14.5273 72.6875 14.5273C72.1719 14.5273 71.7734 14.3867 71.4922 14.1055C71.2188 13.8164 71.082 13.457 71.082 13.0273ZM80.7852 13.2383V16.3203H83.0234V18.4297H80.7852V25.5078C80.7852 25.9922 80.8789 26.3438 81.0664 26.5625C81.2617 26.7734 81.6055 26.8789 82.0977 26.8789C82.4258 26.8789 82.7578 26.8398 83.0938 26.7617V28.9648C82.4453 29.1445 81.8203 29.2344 81.2188 29.2344C79.0312 29.2344 77.9375 28.0273 77.9375 25.6133V18.4297H75.8516V16.3203H77.9375V13.2383H80.7852ZM88.0156 17.7031C88.9453 16.625 90.1211 16.0859 91.543 16.0859C94.2461 16.0859 95.6172 17.6289 95.6562 20.7148V29H92.8086V20.8203C92.8086 19.9453 92.6172 19.3281 92.2344 18.9688C91.8594 18.6016 91.3047 18.418 90.5703 18.418C89.4297 18.418 88.5781 18.9258 88.0156 19.9414V29H85.168V11H88.0156V17.7031ZM106.227 27.7578C105.391 28.7422 104.203 29.2344 102.664 29.2344C101.289 29.2344 100.246 28.832 99.5352 28.0273C98.832 27.2227 98.4805 26.0586 98.4805 24.5352V16.3203H101.328V24.5C101.328 26.1094 101.996 26.9141 103.332 26.9141C104.715 26.9141 105.648 26.418 106.133 25.4258V16.3203H108.98V29H106.297L106.227 27.7578ZM123.008 22.7891C123.008 24.7578 122.566 26.3242 121.684 27.4883C120.809 28.6523 119.602 29.2344 118.062 29.2344C116.578 29.2344 115.422 28.6992 114.594 27.6289L114.453 29H111.875V11H114.723V17.5391C115.543 16.5703 116.648 16.0859 118.039 16.0859C119.586 16.0859 120.801 16.6602 121.684 17.8086C122.566 18.957 123.008 20.5625 123.008 22.625V22.7891ZM120.16 22.543C120.16 21.168 119.918 20.1367 119.434 19.4492C118.949 18.7617 118.246 18.418 117.324 18.418C116.09 18.418 115.223 18.957 114.723 20.0352V25.2617C115.23 26.3633 116.105 26.9141 117.348 26.9141C118.238 26.9141 118.926 26.582 119.41 25.918C119.895 25.2539 120.145 24.25 120.16 22.9062V22.543Z" fill="#FE7E07"/>
<path d="M127.941 32.1641H125.984V11.9375H127.941V32.1641Z" fill="#E7E7E7"/>
<path d="M135.898 25.3906L138.582 16.3203H141.523L137.129 29H134.656L130.227 16.3203H133.18L135.898 25.3906ZM146.34 29H143.492V16.3203H146.34V29ZM143.316 13.0273C143.316 12.5898 143.453 12.2266 143.727 11.9375C144.008 11.6484 144.406 11.5039 144.922 11.5039C145.438 11.5039 145.836 11.6484 146.117 11.9375C146.398 12.2266 146.539 12.5898 146.539 13.0273C146.539 13.457 146.398 13.8164 146.117 14.1055C145.836 14.3867 145.438 14.5273 144.922 14.5273C144.406 14.5273 144.008 14.3867 143.727 14.1055C143.453 13.8164 143.316 13.457 143.316 13.0273ZM155.035 29.2344C153.23 29.2344 151.766 28.668 150.641 27.5352C149.523 26.3945 148.965 24.8789 148.965 22.9883V22.6367C148.965 21.3711 149.207 20.2422 149.691 19.25C150.184 18.25 150.871 17.4727 151.754 16.918C152.637 16.3633 153.621 16.0859 154.707 16.0859C156.434 16.0859 157.766 16.6367 158.703 17.7383C159.648 18.8398 160.121 20.3984 160.121 22.4141V23.5625H151.836C151.922 24.6094 152.27 25.4375 152.879 26.0469C153.496 26.6562 154.27 26.9609 155.199 26.9609C156.504 26.9609 157.566 26.4336 158.387 25.3789L159.922 26.8438C159.414 27.6016 158.734 28.1914 157.883 28.6133C157.039 29.0273 156.09 29.2344 155.035 29.2344ZM154.695 18.3711C153.914 18.3711 153.281 18.6445 152.797 19.1914C152.32 19.7383 152.016 20.5 151.883 21.4766H157.309V21.2656C157.246 20.3125 156.992 19.5938 156.547 19.1094C156.102 18.6172 155.484 18.3711 154.695 18.3711ZM173.48 25.0742L175.496 16.3203H178.273L174.816 29H172.473L169.754 20.293L167.082 29H164.738L161.27 16.3203H164.047L166.098 24.9805L168.699 16.3203H170.844L173.48 25.0742ZM185.762 29.2344C183.957 29.2344 182.492 28.668 181.367 27.5352C180.25 26.3945 179.691 24.8789 179.691 22.9883V22.6367C179.691 21.3711 179.934 20.2422 180.418 19.25C180.91 18.25 181.598 17.4727 182.48 16.918C183.363 16.3633 184.348 16.0859 185.434 16.0859C187.16 16.0859 188.492 16.6367 189.43 17.7383C190.375 18.8398 190.848 20.3984 190.848 22.4141V23.5625H182.562C182.648 24.6094 182.996 25.4375 183.605 26.0469C184.223 26.6562 184.996 26.9609 185.926 26.9609C187.23 26.9609 188.293 26.4336 189.113 25.3789L190.648 26.8438C190.141 27.6016 189.461 28.1914 188.609 28.6133C187.766 29.0273 186.816 29.2344 185.762 29.2344ZM185.422 18.3711C184.641 18.3711 184.008 18.6445 183.523 19.1914C183.047 19.7383 182.742 20.5 182.609 21.4766H188.035V21.2656C187.973 20.3125 187.719 19.5938 187.273 19.1094C186.828 18.6172 186.211 18.3711 185.422 18.3711ZM199.707 18.9219C199.332 18.8594 198.945 18.8281 198.547 18.8281C197.242 18.8281 196.363 19.3281 195.91 20.3281V29H193.062V16.3203H195.781L195.852 17.7383C196.539 16.6367 197.492 16.0859 198.711 16.0859C199.117 16.0859 199.453 16.1406 199.719 16.25L199.707 18.9219Z" fill="#E0E0E0"/>
<path d="M39.6604 31.1624C46.7796 24.043 46.7795 12.4589 39.6604 5.33953C32.541 -1.77984 20.957 -1.77984 13.8378 5.33953C7.798 11.3793 6.88327 20.3621 11.0912 27.3767C11.0912 27.3767 11.3934 27.8837 10.9852 28.2917C8.65633 30.6204 1.66932 37.6075 1.66932 37.6075C-0.18493 39.4617 -0.626348 42.0544 1.01799 43.699L1.30111 43.9818C2.94544 45.6264 5.53828 45.1852 7.39238 43.3309C7.39238 43.3309 14.3646 36.3585 16.6887 34.0346C17.1165 33.6068 17.6234 33.9091 17.6234 33.9091C24.6378 38.1168 33.6206 37.2022 39.6604 31.1624ZM17.2088 27.7913C11.9483 22.5308 11.9485 13.9715 17.209 8.71098C22.4695 3.45064 31.0288 3.45049 36.2891 8.71098C41.5496 13.9713 41.5496 22.5308 36.2891 27.7913C31.0286 33.0515 22.4695 33.0515 17.2088 27.7913Z" fill="#E0E0E0"/>
<path d="M18.3737 17.1675C18.1288 17.1675 17.8799 17.1194 17.64 17.0181C16.6816 16.6125 16.2333 15.5067 16.6389 14.5482C19.1882 8.52358 26.1635 5.69633 32.188 8.24568C33.1463 8.65129 33.5947 9.75708 33.1891 10.7156C32.7833 11.6741 31.6778 12.1222 30.719 11.7167C26.6087 9.97743 21.8492 11.9065 20.1101 16.0168C19.8058 16.7357 19.1079 17.1675 18.3737 17.1675Z" fill="#E0E0E0"/>
</svg>
